<?xml version="1.0" encoding="UTF-8"?>
<svg id="Layer_2" data-name="Layer 2" xmlns="http://www.w3.org/2000/svg" width="130" height="150px">
  <defs>
    <style>
      .cls-1 {
        fill: #f9ce62;
      }

      .cls-2 {
        fill: #f93e6b;
      }

      .cls-3 {
        fill: #f9b212;
      }

      .cls-4 {
        fill: #6a79aa;
      }

      .cls-5 {
        fill: #efa23c;
      }

      .cls-6 {
        fill: #e5891c;
      }

      .cls-7, .cls-8 {
        fill: #fff;
      }

      .cls-9 {
        fill: #eda60a;
      }

      .cls-10 {
        fill: #934b35;
      }

      .cls-11 {
        fill: #af6c52;
      }

      .cls-12 {
        fill: #cbe9f7;
      }

      .cls-13 {
        fill: #191818;
      }

      .cls-14 {
        fill: #263568;
      }

      .cls-15, .cls-8 {
        opacity: .5;
      }
    </style>
  </defs>
  <g id="Layer_1-2" data-name="Layer 1">
    <g>
      <path class="cls-11" d="M28.51,35.22c-3.25,.1-6.93-2.83-6.93-2.83-.62,1.4-1.13,2.92-1.55,4.49l-.71,3.15c-.27,1.41-.46,2.8-.6,4.13l-.37,9.07c.48,5.06,2.16,11.14,4.14,14.8,4.34,8.04,11.4,15.21,19.95,18.68l.69,.26,9.19,2.25s8.9,2.86,18.13,0l9.29-2.5c8.56-3.47,15.61-10.64,19.95-18.68,.33-.61,.63-1.23,.91-1.87,.74-1.69,1.31-3.45,1.76-5.25,.44-1.75,.76-3.6,1.01-5.39,.49-3.54,.33-7.2-.08-10.74-.4-3.5-.87-7.27-2-10.62-.2-.6-.43-1.2-.69-1.78,0,0-3.68,2.93-6.93,2.83"/>
      <ellipse class="cls-10" cx="61.23" cy="61.71" rx="33.51" ry="27.2"/>
      <path class="cls-7" d="M83.97,110.71c.37,.93,.18,.58,.55,1.51,.75-.52,1.39-.94,2.05-1.56,.73-.68,1.7-1.02,2.66-1.26,.89-.23,1.79-.39,2.71-.5,1.82-.21,4.15,.71,5.57,1.89,1.48,1.24,1.94,3.33,2.15,5.28,.21,1.98,.23,4.1-.78,5.8-.08,.13-.16,.26-.29,.34-.13,.08-.29,.1-.44,.11-1.53,.13-3.08,.13-4.61,0-.91-.07-1.81-.19-2.72-.22-2.26-.06-4.48,.48-6.73,.75-1.12,.13-2.24,.2-3.37,.2-.89,0-2.27,.01-3.1-.32-1.48-.59-2.5-2-2.54-3.62-.02-.96,.29-1.89,.64-2.78,.62-1.56,1.81-3.25,2.7-4.66"/>
      <path class="cls-12" d="M83.17,121.24c5.09-1.02,10.13-.89,15.26-.33,.96,.11,.95-1.4,0-1.5-5.27-.58-10.44-.66-15.66,.38-.95,.19-.55,1.64,.4,1.45h0Z"/>
      <path class="cls-7" d="M39.17,110.71c-.37,.93-.18,.58-.55,1.51-.75-.52-1.39-.94-2.05-1.56-.73-.68-1.7-1.02-2.66-1.26-.89-.23-1.79-.39-2.71-.5-1.82-.21-4.15,.71-5.57,1.89-1.48,1.24-1.94,3.33-2.15,5.28-.21,1.98-.23,4.1,.78,5.8,.08,.13,.16,.26,.29,.34,.13,.08,.29,.1,.44,.11,1.53,.13,3.08,.13,4.61,0,.91-.07,1.81-.19,2.72-.22,2.26-.06,4.48,.48,6.73,.75,1.12,.13,2.24,.2,3.37,.2,.89,0,2.27,.01,3.1-.32,1.48-.59,2.5-2,2.54-3.62,.02-.96-.29-1.89-.64-2.78-.62-1.56-1.81-3.25-2.7-4.66"/>
      <path class="cls-12" d="M24.8,120.92c5.1-.77,10.32-.64,15.39,.35,.94,.18,1.35-1.26,.4-1.45-5.35-1.05-10.8-1.16-16.19-.35-.95,.14-.55,1.59,.4,1.45h0Z"/>
      <path class="cls-12" d="M2.39,18.03c.22,2.34,2.74,3.25,4.77,3.45s4.17-.64,5.12-2.51c.43-.86-.86-1.62-1.3-.76-.67,1.32-2.1,1.85-3.52,1.79-1.13-.05-3.43-.52-3.57-1.97-.04-.4-.32-.75-.75-.75-.38,0-.79,.34-.75,.75h0Z"/>
      <path class="cls-1" d="M99.32,69.02c2.51,3.1,4.46,6.65,6,10.34,2.14,5.11,3.52,10.49,4.9,15.85l-.42,.76c-1.32,1.55-1.43,3.98-.32,5.68s3.32,2.58,5.32,2.18,3.67-2.02,4.22-3.98-.02-4.17-1.39-5.68l-1.18-1.14c-1.43-7.65-3.94-15.1-7.42-22.05-1.78-3.55-3.84-7.01-6.34-10.09"/>
      <path class="cls-7" d="M109.09,91.5c-.17,1.33,.85,2.61,.64,3.94-.1,.62-.46,1.17-.7,1.76-.75,1.82-.21,4.09,1.28,5.38s3.81,1.5,5.51,.51c.7-.41,1.28-1,1.85-1.58,.52-.53,1.04-1.1,1.29-1.8,.18-.5,.21-1.04,.23-1.58,.03-.6,.05-1.22-.11-1.8-.52-1.96-2.82-3.02-3.41-4.96-.21-.69-.18-1.45-.51-2.09-.38,.54-.78,1.1-1.35,1.43-.55,.32-1.21,.4-1.85,.47-.5,.06-1,.11-1.51,.17"/>
      <path class="cls-12" d="M109.89,92.78c1.13,.1,2.27,0,3.37-.27,.92-.23,1.87-.64,2.46-1.4l-1.28-.53c.06,.6,.12,1.2,.18,1.8,.04,.4,.32,.75,.75,.75,.37,0,.79-.34,.75-.75-.06-.6-.12-1.2-.18-1.8-.03-.3-.16-.57-.46-.69-.25-.1-.63-.08-.82,.16-.49,.62-1.13,.85-1.9,1.04-.94,.23-1.91,.28-2.87,.19-.4-.04-.75,.37-.75,.75,0,.44,.34,.71,.75,.75h0Z"/>
      <path class="cls-9" d="M101.14,69.65c.88-1.09,1.46-2.37,1.95-3.67,.41-1.08,.8-2.23,.87-3.39,.04-.59-.54-1.15-1.12-1.12-.64,.03-1.09,.49-1.12,1.12,0,.06-.04,.35,0,.13s0-.04,0,.01c-.01,.06-.02,.12-.03,.17-.05,.24-.11,.48-.17,.72-.15,.57-.34,1.13-.55,1.68-.06,.15-.11,.3-.18,.45-.03,.07-.06,.14-.08,.2-.05,.13,.08-.18,0,.01-.13,.29-.26,.58-.4,.86-.13,.26-.27,.52-.43,.77-.06,.1-.13,.21-.2,.31-.04,.06-.08,.11-.12,.17-.12,.17,.15-.19,.01-.02-.37,.46-.48,1.15,0,1.59,.41,.38,1.19,.49,1.59,0h0Z"/>
      <path class="cls-13" d="M18.16,53.22c.78,7.79,3.44,14.97,8.23,21.17,4.34,5.61,10.09,10.39,16.79,12.87,.4,.15,.57-.49,.17-.63-6.66-2.46-12.37-7.28-16.64-12.88-4.58-6.02-7.15-13.01-7.9-20.53-.04-.42-.7-.42-.66,0h0Z"/>
      <path class="cls-13" d="M52.37,89.5c1.83,.58,3.78,.88,5.68,1.08,4.23,.45,8.53,.15,12.61-1.08,.38-.11,.22-.71-.16-.59-5.66,1.71-12.29,1.81-17.97,0-.38-.12-.54,.47-.16,.59h0Z"/>
      <ellipse class="cls-1" cx="44.29" cy="118.15" rx="1.66" ry="2.11"/>
      <ellipse class="cls-1" cx="78.81" cy="118.13" rx="1.66" ry="2.11"/>
      <path class="cls-1" d="M22.49,45.92c-3.25-.98-5.69-2.72-7.99-5.29-4.17-4.67-5.83-11.44-3.96-17.48,.21-.69,.67-1.34,.82-2.02l.37-.62c-.78,.76-1.81,1.24-2.88,1.44-2.13,.39-4.51-.44-5.73-2.23v.49c-.42,2.77-.84,5.55-.99,8.35l-.05,3.04c.08,3.03,.59,6.06,1.82,8.83,1.52,3.44,4.1,6.35,7.13,8.56,3.36,2.44,7.21,4.35,11.34,5.23"/>
      <path class="cls-1" d="M53.24,86.54l-5.28,18.61-7.33-2.45c1.02-4.5,.18,.26,1-4.28l.49-2.79c.33-1.93,.64-3.86,.93-5.79l1.19-7.05"/>
      <path class="cls-1" d="M70.1,86.25l5.06,19.56,7.33-2.45c-1.02-4.5,.04-.69-.78-5.23l-.49-2.79c-.33-1.93-.64-3.86-.93-5.79l-1.19-7.05"/>
      <path class="cls-9" d="M77.56,82.88s-.14,.11-.05,.04c-.06,.05-.12,.09-.18,.14-.12,.09-.25,.17-.37,.26-.27,.18-.54,.34-.82,.49-.6,.33-.99,.5-1.53,.7-1.24,.46-2.54,.77-3.84,1.02-.58,.11-.96,.84-.79,1.38,.2,.61,.76,.91,1.38,.79,2.82-.56,5.5-1.42,7.78-3.22,.48-.38,.39-1.2,0-1.59-.47-.47-1.11-.38-1.59,0h0Z"/>
      <path class="cls-9" d="M44.07,84.77c2.28,1.8,4.97,2.67,7.78,3.22,.58,.11,1.24-.16,1.38-.79,.13-.56-.17-1.26-.79-1.38-1.3-.26-2.6-.56-3.84-1.02-.14-.05-.28-.11-.42-.16-.05-.02-.15-.07-.04-.02-.07-.03-.14-.06-.21-.09-.27-.12-.54-.26-.8-.4-.28-.15-.55-.31-.82-.49-.13-.08-.25-.17-.38-.26-.06-.04-.12-.09-.18-.13-.17-.12,.2,.16-.09-.07-.48-.38-1.13-.46-1.59,0-.39,.39-.48,1.21,0,1.59h0Z"/>
      <path class="cls-7" d="M26.42,60.02s-2.17,.91-3.02,1.12c-1.43-5.8-1.71-12-.49-17.86l.57-2.36c.19-.66,.39-1.32,.62-1.97,.75,.46,2.81,1.62,2.81,1.62"/>
      <path class="cls-12" d="M26.65,60.02s-1.05,.33-1.51,.54c-1.33-5.67-1.3-11.58-.56-17.33,.07-.57,.15-1.13,.24-1.69,.06-.42,.34-1.61,.34-1.61,0,0,1.33,.45,1.77,.65"/>
      <path class="cls-7" d="M95.78,60.02s2.79,.78,3.64,.99c1.43-5.8,1.76-10.86,.55-16.72l-.62-3.01c-.19-.66-.47-1.57-.7-2.22-.75,.46-3.37,1.5-3.37,1.5"/>
      <circle class="cls-1" cx="61.74" cy="50.84" r="36.03"/>
      <path class="cls-3" d="M97.38,50.84c0,19.9-16.13,36.03-36.02,36.03-9.54,0-18.22-3.7-24.66-9.76,4.96,2.58,10.61,4.04,16.59,4.04,19.9,0,36.03-16.13,36.03-36.03,0-10.37-4.38-19.72-11.4-26.28,11.56,5.99,19.46,18.07,19.46,32Z"/>
      <path class="cls-14" d="M34.89,37.62c-.96,.02-1.96,.15-2.75,.6-.12,.07-.23,.14-.31,.24-.1,.12-.13,.26-.15,.4-.03,.39,.02,.82,.02,1.21v1.52c0,1.01,0,2.03,0,3.04v6.08c0,.48-.23,1.22,.26,1.55,.53,.36,1.22,.58,1.89,.68,.37,.05,.75,.07,1.11-.01"/>
      <path class="cls-14" d="M87.76,41.5v-4.54c0-2.23-1.59-4.04-3.55-4.04H38.76c-1.96,0-3.55,1.81-3.55,4.04v16.16c0,2.23,1.59,4.04,3.55,4.04h18.22l4.01-4.53c.35-.39,.9-.4,1.26,0l4.13,4.54h17.83c1.96,0,3.55-1.81,3.55-4.04v-5.98"/>
      <g>
        <path class="cls-14" d="M87.89,37.79c.96,.02,1.96,.15,2.75,.6,.12,.07,.23,.14,.31,.24,.1,.12,.13,.26,.15,.4,.03,.39-.02,.82-.02,1.21v1.52c0,1.01,0,2.03,0,3.04v6.08c0,.48,.23,1.22-.26,1.55-.53,.36-1.22,.58-1.89,.68-.37,.05-.75,.07-1.11-.01"/>
        <path class="cls-4" d="M90.91,48.38c-2.2-1.13-4.63-1.9-7.23-1.85l.09-5.32c2.6-.05,5,.61,7.2,1.74"/>
      </g>
      <path class="cls-4" d="M31.87,48.21c2.2-1.13,4.78-1.72,7.39-1.67v-5.43c-2.6-.05-5.25,.54-7.45,1.67"/>
      <path class="cls-13" d="M2.7,20.01c-.42,2.8-.84,5.6-1,8.43-.02,.42,.63,.42,.66,0,.16-2.77,.56-5.52,.98-8.26,.06-.41-.57-.59-.63-.17h0Z"/>
      <path class="cls-13" d="M102.4,61c7.26,9.03,11.54,20.71,13.68,32,.08,.41,.71,.24,.63-.17-2.17-11.4-6.52-23.17-13.85-32.29-.26-.33-.73,.14-.46,.46h0Z"/>
      <path class="cls-13" d="M99.04,69.13c5.99,7.51,8.47,16.91,10.81,26.04,.11,.41,.74,.24,.63-.17-2.38-9.26-4.91-18.72-10.98-26.33-.26-.33-.73,.14-.46,.46h0Z"/>
      <path class="cls-13" d="M109.52,95.61c-1.07,1.31-1.43,3.08-.98,4.72s1.71,2.86,3.26,3.45c3.27,1.24,6.93-1.01,7.58-4.39,.39-1.99-.24-4.06-1.57-5.56-.28-.32-.74,.15-.46,.46,2.07,2.35,1.99,6.04-.49,8.06-2.31,1.88-6.08,1.3-7.42-1.48-.74-1.53-.54-3.47,.54-4.79,.27-.32-.2-.79-.46-.46h0Z"/>
      <path class="cls-13" d="M30.48,68.69c-6.47-11.41-6.18-25.57,.73-36.71,.23-.37-.36-.72-.59-.34-7.04,11.35-7.31,25.79-.73,37.4,.22,.38,.81,.04,.59-.34h0Z"/>
      <g>
        <g>
          <path class="cls-13" d="M42.29,95.49c.73-4.28,1.4-8.56,2.12-12.84,.07-.41-.56-.59-.63-.17-.72,4.28-1.39,8.57-2.12,12.84-.07,.41,.56,.59,.63,.17h0Z"/>
          <path class="cls-13" d="M39.04,111.84c1.02-4.5,1.94-9.02,2.76-13.56,.07-.41-.56-.59-.63-.17-.82,4.54-1.74,9.06-2.76,13.56-.09,.41,.54,.59,.63,.17h0Z"/>
          <path class="cls-13" d="M52.77,86.23c-2.06,8.15-4.11,16.29-6.17,24.44-.29,1.15-.58,2.3-.87,3.45-.1,.41,.53,.58,.63,.17,2.06-8.15,4.11-16.29,6.17-24.44,.29-1.15,.58-2.3,.87-3.45,.1-.41-.53-.58-.63-.17h0Z"/>
          <path class="cls-13" d="M39.84,113.07c-2.11-3-5.79-4.3-9.36-4.29-3.94,.01-6.82,2.58-7.37,6.48-.26,1.82-.12,4.06,.65,5.75,.68,1.5,2.11,1.87,3.65,1.8,2.49-.11,4.95-.35,7.45-.29s5.15,.39,7.73,.73c1.77,.23,3.73,.24,4.93-1.3,1.42-1.81,.92-4,.36-6.02-.11-.41-.75-.23-.63,.17,.6,2.17,1.19,5.38-1.56,6.4-1.98,.73-4.56-.16-6.6-.37-2.34-.24-4.7-.33-7.05-.27-1.26,.03-2.51,.12-3.76,.22-1.01,.08-2.09,.23-3-.32-1.04-.63-1.25-1.88-1.44-3-.22-1.31-.25-2.67,.02-3.98,.44-2.12,1.75-4.09,3.82-4.89,3.84-1.48,9.26,.17,11.6,3.5,.24,.34,.81,.02,.57-.33h0Z"/>
        </g>
        <path class="cls-13" d="M40.48,105.25c2.48,.08,4.94,.32,7.38,.75,.41,.07,.59-.56,.17-.63-2.5-.43-5.02-.69-7.56-.77-.42-.01-.42,.64,0,.66h0Z"/>
        <path class="cls-13" d="M40.92,102.37c2.58,.14,5.18,.26,7.72,.75,.41,.08,.59-.55,.17-.63-2.6-.5-5.25-.63-7.89-.77-.42-.02-.42,.63,0,.66h0Z"/>
        <path class="cls-13" d="M23.91,119.84c4.07-.27,8.31-.87,12.37-.19,.41,.07,.59-.56,.17-.63-4.13-.69-8.4-.11-12.54,.17-.42,.03-.42,.68,0,.66h0Z"/>
        <path class="cls-13" d="M37.81,119.79c1.09,.16,2.17,.4,3.22,.71,.41,.12,.58-.51,.17-.63-1.05-.32-2.13-.56-3.22-.71-.18-.03-.35,.04-.4,.23-.04,.15,.05,.38,.23,.4h0Z"/>
      </g>
      <path class="cls-13" d="M23.91,119.84c4.07-.27,8.31-.87,12.37-.19,.41,.07,.59-.56,.17-.63-4.13-.69-8.4-.11-12.54,.17-.42,.03-.42,.68,0,.66h0Z"/>
      <path class="cls-13" d="M37.81,119.79c1.09,.16,2.17,.4,3.22,.71,.41,.12,.58-.51,.17-.63-1.05-.32-2.13-.56-3.22-.71-.18-.03-.35,.04-.4,.23-.04,.15,.05,.38,.23,.4h0Z"/>
      <path class="cls-13" d="M20.49,36.96c.41-1.5,.89-2.98,1.51-4.41l-.52,.07c.73,.58,1.54,1.09,2.36,1.53,1.47,.79,3.11,1.43,4.8,1.4,.42,0,.42-.66,0-.66-1.61,.03-3.17-.6-4.57-1.36-.53-.29-1.05-.61-1.55-.95-.15-.11-.31-.21-.46-.33-.04-.03-.09-.07-.13-.1-.02-.02,.05,.04,0,0-.15-.12-.42-.15-.52,.07-.65,1.48-1.16,3.01-1.58,4.57-.11,.41,.52,.58,.63,.17h0Z"/>
      <path class="cls-13" d="M19.18,44.15c.14-1.35,.34-2.7,.59-4.04,.08-.41-.55-.59-.63-.17-.26,1.4-.47,2.8-.61,4.22-.02,.18,.16,.33,.33,.33,.19,0,.31-.15,.33-.33h0Z"/>
      <path class="cls-13" d="M23.8,41.01c.19-.66,.39-1.32,.62-1.97l-.48,.2c.92,.56,1.87,1.09,2.81,1.62,.37,.21,.7-.36,.33-.57-.94-.53-1.89-1.06-2.81-1.62-.19-.12-.41,0-.48,.2-.23,.65-.43,1.3-.62,1.97-.12,.41,.52,.58,.63,.17h0Z"/>
      <path class="cls-13" d="M58.84,66.42c1.99,1.24,4.65,1.21,6.61-.08,.35-.23,.02-.8-.33-.57-1.77,1.17-4.14,1.2-5.95,.08-.36-.22-.69,.34-.33,.57h0Z"/>
      <g>
        <path class="cls-13" d="M5.43,14.19c-.98-2.14-1.77-4.37-2.34-6.66-.27-1.08-.49-2.16-.66-3.26s-.47-2.65,.61-3.38c1.26-.85,2.06,.91,2.25,1.87,.22,1.09,.38,2.18,.62,3.27,.52,2.33,1.22,4.61,2.08,6.84,.16,.41,.82,.23,.66-.18-.81-2.1-1.48-4.26-1.99-6.45-.25-1.1-.45-2.21-.64-3.32-.14-.84-.36-1.72-1-2.32C3.82-.51,2.19,.15,1.73,1.61c-.29,.92-.1,1.92,.04,2.84,.17,1.05,.38,2.1,.63,3.13,.59,2.39,1.41,4.71,2.44,6.95,.18,.4,.77,.05,.59-.34h0Z"/>
        <path class="cls-13" d="M12,14.53c.88-1.93,1.62-3.92,2.18-5.96,.29-1.07,.54-2.15,.74-3.24,.18-.98,.42-2.04,.32-3.05-.14-1.4-1.43-2.87-2.92-2.05-1.64,.9-1.57,3.37-1.9,4.96-.53,2.55-1.28,5.06-2.22,7.49-.16,.41,.5,.59,.66,.18,.86-2.23,1.56-4.51,2.08-6.84,.24-1.08,.4-2.18,.62-3.27,.19-.96,.99-2.72,2.25-1.87,1.08,.73,.78,2.3,.61,3.38s-.39,2.18-.66,3.26c-.57,2.29-1.36,4.52-2.34,6.66-.18,.4,.41,.74,.59,.34h0Z"/>
        <path class="cls-13" d="M4.1,10.86c-.51-1.37-2.47-1.87-3.48-.73-1.33,1.5-.26,3.58,.66,4.98,.58,.88,1.39,1.6,2.51,1.39,.43-.08,.25-.74-.18-.66-.97,.18-1.57-.77-1.99-1.48-.48-.79-.98-1.66-.93-2.62,.04-.72,.45-1.47,1.23-1.56,.61-.07,1.31,.26,1.53,.86,.15,.41,.81,.23,.66-.18h0Z"/>
        <path class="cls-13" d="M12.58,14.23c-1.08,.03-2.34,.17-2.91,1.22-.52,.95,.04,1.97,.99,2.33,.55,.21,1.16,.16,1.72,.06s1.17-.27,1.65-.61c.81-.56,1.18-1.57,1.11-2.53-.09-1.22-.84-2.26-1.71-3.08-.32-.3-.8,.18-.48,.48,1.08,1.01,2.13,2.71,1.13,4.14-.49,.7-1.55,.96-2.36,1-.68,.04-1.79-.33-1.55-1.23,.27-1.02,1.56-1.08,2.41-1.1,.44-.01,.44-.69,0-.68h0Z"/>
        <path class="cls-13" d="M12.61,17.5c-.12,2.89-3.23,4.45-5.83,4.02-2.34-.38-5.12-2.79-3.87-5.39,.19-.39-.4-.74-.59-.34-1.43,3,1.45,5.92,4.28,6.39,3.05,.51,6.55-1.33,6.69-4.68,.02-.44-.66-.44-.68,0h0Z"/>
      </g>
      <rect class="cls-5" x="64.53" y="25.63" width="4.95" height="3.35" rx=".17" ry=".17" transform="translate(39.7 94.31) rotate(-90)"/>
      <path class="cls-13" d="M45.67,118.1c0,.65-.28,1.4-.91,1.69-.56,.26-1.14-.06-1.44-.55-.37-.6-.42-1.42-.12-2.06,.24-.52,.77-.99,1.38-.84,.75,.19,1.08,1.05,1.09,1.75,0,.42,.66,.42,.66,0-.01-.89-.42-1.89-1.28-2.28s-1.74,0-2.25,.73c-.55,.81-.58,1.92-.17,2.79,.37,.79,1.21,1.35,2.1,1.14,1.06-.25,1.58-1.39,1.6-2.39,0-.42-.65-.42-.66,0Z"/>
      <path class="cls-13" d="M80.08,118.1c0,.65-.28,1.4-.91,1.69-.56,.26-1.14-.06-1.44-.55-.37-.6-.42-1.42-.12-2.06,.24-.52,.77-.99,1.38-.84,.75,.19,1.08,1.05,1.09,1.75,0,.42,.66,.42,.66,0-.01-.89-.42-1.89-1.28-2.28s-1.74,0-2.25,.73c-.55,.81-.58,1.92-.17,2.79,.37,.79,1.21,1.35,2.1,1.14,1.06-.25,1.58-1.39,1.6-2.39,0-.42-.65-.42-.66,0Z"/>
      <path class="cls-7" d="M35.7,30.34c.11-.16,.21-.32,.33-.47,.06-.08,.11-.15,.17-.23,.09-.11-.05,.06,0,0,.03-.04,.06-.07,.09-.11,.24-.3,.49-.58,.76-.86s.53-.52,.81-.77c.14-.13,.29-.25,.44-.37,.04-.03,.07-.06,.11-.09-.08,.06-.06,.05,0,0,.08-.06,.17-.12,.25-.19,.32-.23,.5-.66,.27-1.03-.2-.32-.69-.51-1.03-.27-1.38,.99-2.57,2.21-3.51,3.63-.22,.33-.08,.84,.27,1.03,.38,.2,.79,.08,1.03-.27h0Z"/>
      <path class="cls-7" d="M40.48,25.88c.97,0,.97-1.5,0-1.5s-.97,1.5,0,1.5h0Z"/>
      <g>
        <path class="cls-13" d="M88.11,37.94c.76,.03,1.68,.05,2.37,.44,.77,.44,.51,1.55,.51,2.3v4.71c0,1.57,0,3.14,0,4.71,0,.64,.26,1.57-.3,2.01-.63,.48-1.8,.63-2.55,.5-.4-.06-.58,.55-.17,.62,1.11,.18,3.51-.08,3.7-1.51,.1-.8-.04-1.72-.04-2.53v-3.49c0-2.16,.03-4.32,.03-6.48,0-1.73-2.21-1.88-3.54-1.92-.41-.01-.41,.62,0,.64h0Z"/>
        <path class="cls-13" d="M84.07,42.57v-1.46c-.11,.11-.21,.21-.32,.32,2.51-.04,5.04,.48,7.29,1.63,.37,.19,.69-.36,.32-.55-2.34-1.2-4.98-1.76-7.61-1.72-.17,0-.32,.14-.32,.32v1.46c0,.41,.64,.41,.64,0h0Z"/>
        <path class="cls-13" d="M91.29,47.94c-2.33-1.19-4.93-1.76-7.55-1.72l.32,.32c0-.8,0-1.59,0-2.39,0-.41-.64-.41-.64,0,0,.8,0,1.59,0,2.39,0,.17,.15,.32,.32,.32,2.5-.04,4.99,.49,7.23,1.63,.37,.19,.69-.36,.32-.55h0Z"/>
      </g>
      <g>
        <path class="cls-13" d="M31.38,41.6v8.55c0,.82-.31,1.9,.49,2.43,.88,.59,2.14,.84,3.17,.65,.4-.07,.23-.69-.17-.62-.76,.14-2.84-.07-2.91-1.08-.03-.42,.05-.86,.05-1.28v-1.69c0-2.33,0-4.65,0-6.98,0-.41-.64-.41-.64,0h0Z"/>
        <path class="cls-13" d="M34.89,37.3c-.89,.02-1.79,.13-2.61,.49-.38,.17-.79,.41-.89,.85-.11,.46-.02,.97-.02,1.44,0,.41,.64,.41,.64,0s-.07-.82-.01-1.22c.04-.3,.43-.44,.68-.54,.7-.28,1.47-.35,2.21-.37,.41-.01,.41-.65,0-.64h0Z"/>
        <path class="cls-13" d="M39.58,42.99c0-.62,0-1.25,0-1.87,0-.17-.15-.32-.32-.32-2.63-.04-5.26,.52-7.61,1.72-.37,.19-.04,.74,.32,.55,2.24-1.15,4.77-1.67,7.29-1.63l-.32-.32c0,.62,0,1.25,0,1.87,0,.41,.64,.41,.64,0h0Z"/>
        <path class="cls-13" d="M32.03,48.49c2.23-1.14,4.73-1.67,7.23-1.63,.17,0,.32-.15,.32-.32,0-.64,0-1.28,0-1.91,0-.41-.64-.41-.64,0,0,.64,0,1.28,0,1.91l.32-.32c-2.61-.04-5.22,.53-7.55,1.72-.37,.19-.04,.74,.32,.55h0Z"/>
      </g>
      <path class="cls-13" d="M35.5,41.3v-2.31c0-.8-.05-1.62,.01-2.42,.12-1.49,1.12-2.97,2.65-3.28,.75-.15,1.59-.05,2.34-.05h2.71c.44,0,.44-.68,0-.68h-2.46c-.83,0-1.7-.08-2.52,.04-1.53,.21-2.71,1.41-3.18,2.85-.31,.94-.23,1.96-.23,2.94v2.92c0,.44,.68,.44,.68,0h0Z"/>
      <path class="cls-7" d="M45.03,89.86c.97,0,.97-1.5,0-1.5s-.97,1.5,0,1.5h0Z"/>
      <path class="cls-7" d="M43.94,91.55l-.68,3.71c-.07,.38,.11,.83,.52,.92,.37,.08,.85-.11,.92-.52l.68-3.71c.07-.38-.11-.83-.52-.92-.37-.08-.85,.11-.92,.52h0Z"/>
      <g class="cls-15">
        <rect class="cls-6" x="53.31" y="25.63" width="4.95" height="3.35" rx=".17" ry=".17" transform="translate(28.48 83.09) rotate(-90)"/>
        <g>
          <path class="cls-6" d="M88.95,56.75c-.33,3.3-1.76,6.77-3.21,9.73-1.4,2.85-3.29,5.53-5.91,7.37-.57,.4-1.16,.75-1.78,1.06-1.03,.5-1.59,.73-2.64,.11s-2.21-.94-3.41-.97c-2.21-.06-4.61,.92-5.44,3.1-.15,.4,.48,.57,.63,.17,.63-1.67,2.44-2.48,4.13-2.6,.82-.06,1.65,.03,2.44,.28s1.32,.73,2.04,1.06c.88,.41,1.95-.25,2.74-.65,1.21-.61,2.31-1.42,3.3-2.34,2.19-2.04,3.77-4.63,4.98-7.34s2.48-5.89,2.79-8.96c.04-.42-.62-.42-.66,0h0Z"/>
          <path class="cls-6" d="M77.81,57.33c.45,.91,1,1.79,1.59,2.62,1.11,1.57,2.43,3.09,4.1,4.09,.94,.56,2,.92,3.1,.93,.42,0,.42-.65,0-.66-1.91-.02-3.55-1.21-4.84-2.52-1.14-1.16-2.09-2.5-2.9-3.9-.17-.29-.34-.59-.48-.89-.19-.38-.75-.05-.57,.33h0Z"/>
          <path class="cls-6" d="M42.18,61.18h3.9v2.06c0,.21-.17,.38-.38,.38h-3.14c-.21,0-.38-.17-.38-.38v-2.06h0Z" transform="translate(-32.11 56.99) rotate(-50.67)"/>
          <path class="cls-6" d="M78.57,61.18h3.14c.21,0,.38,.17,.38,.38v2.06h-3.9v-2.06c0-.21,.17-.38,.38-.38Z" transform="translate(82.67 163.93) rotate(-129.33)"/>
          <g>
            <path class="cls-6" d="M44.78,57.08c-.36,2.54-1.97,5.1-4.24,6.32-1.21,.65-2.58,.91-3.95,.92-.42,0-.42,.66,0,.66,2.37-.01,4.66-.81,6.3-2.57,1.1-1.17,1.86-2.65,2.3-4.19,.09-.32,.17-.64,.22-.96,.06-.41-.57-.59-.63-.17h0Z"/>
            <path class="cls-6" d="M33.66,56.74c1.04,5.84,3.48,12.3,7.72,16.54,1.59,1.59,3.51,2.81,5.7,3.38,.1,.03,.25,0,.32-.08,.66-.82,1.53-1.54,2.46-2.04,2.5-1.34,4.74-.18,6.31,1.97,.25,.34,.82,.01,.57-.33-1.91-2.61-4.66-3.79-7.58-1.99-.46,.28-.89,.61-1.29,.97-.24,.22-.54,.69-.83,.83s.17,0-.01-.02c-.29-.02-.61-.18-.88-.28-.76-.28-1.48-.66-2.16-1.1-4.65-3.04-7.13-8.81-8.68-13.94-.4-1.34-.77-2.7-1.02-4.08-.07-.42-.71-.24-.63,.17h0Z"/>
          </g>
        </g>
        <g>
          <path class="cls-6" d="M56.32,25.66c-.62-.23-1.37-.03-1.79,.48-.2,.24-.31,.53-.35,.83-.02,0-.04-.01-.06-.01h-5.77c.68-.9,1.35-1.79,2.03-2.69,.1-.13,.04-.31-.05-.41-1.54-1.81-3.08-3.62-4.62-5.43-.28-.33-.77,.15-.48,.48,1.48,1.73,2.95,3.47,4.43,5.2-.76,1-1.52,2.01-2.28,3.01-.16,.21,.06,.51,.29,.51h6.45s.07-.01,.1-.02c.04,.14,.08,.27,.16,.4,.35,.59,1.04,.88,1.72,.76,.76-.14,1.29-.84,1.3-1.59,0-.69-.43-1.28-1.07-1.53Zm-1.48,1.68s0-.05,0-.01c0-.01,0-.02,0-.03,0,.04,.01,.09,.03,.13,0,0,0,0,0-.01,0-.02,0-.05-.02-.07Zm.12,.33s-.02-.03-.03-.05c.03,.06,.07,.11,.11,.16,0,0-.01-.01-.02-.02,0,0,0-.01-.01-.01-.02-.03-.04-.06-.05-.08Zm.22,.26s0,0,0,0c0,0,0,0,0,0,.03,.03,.07,.05,.11,.07,0,0-.02,0-.02-.01-.02-.01-.05-.03-.07-.05Z"/>
          <path class="cls-6" d="M77.04,18.43c-1.54,1.81-3.08,3.62-4.62,5.43-.09,.1-.15,.29-.05,.41,.68,.9,1.35,1.79,2.03,2.69h-5.77s-.04,0-.06,.01c-.03-.21-.08-.42-.19-.61-.35-.59-1.04-.88-1.72-.76-.76,.14-1.29,.84-1.3,1.59,0,.69,.43,1.28,1.07,1.53,.62,.23,1.37,.03,1.79-.48,.15-.18,.24-.4,.3-.62,.03,.01,.07,.02,.11,.02h6.45c.24,0,.46-.3,.29-.51-.76-1-1.52-2.01-2.28-3.01,1.48-1.73,2.95-3.47,4.43-5.2,.28-.33-.2-.82-.48-.48Zm-9.13,8.6s0,.05,0,.01c0,.02,0,.04,0,.05,0,0,0,.02,0,.03,0-.08-.03-.16-.05-.24,0,.03,.02,.05,.02,.08,0,.02,0,.05,.02,.07Zm-.56,1.02s0,0,0,0c.01,0,0,0,0,0Zm.21-.13s-.05,.04-.05,.03c-.05,.03-.1,.06-.15,.09,.09-.05,.18-.1,.26-.17,0,0,0,.01-.02,.02,0,0-.08,.07-.04,.04Zm.35-.62s0,.05-.01,.07c-.01,.06-.03,.11-.05,.16,0,.02,0,.02,0,.02,0,0,0,0-.01,.02-.02,.03-.03,.06-.05,.09-.01,.02-.03,.05-.05,.07,0,0-.02,.02-.02,.03-.03,.03-.05,.06-.08,.09,.17-.18,.28-.41,.28-.68,0,.02,0,.05,0,.07,0,0-.01,.12,0,.05Z"/>
        </g>
      </g>
      <path class="cls-13" d="M32.59,29.94c6.45-8.77,16.56-14.18,27.44-14.66,.44-.02,.44-.7,0-.68-11.14,.49-21.42,6.02-28.02,15-.26,.35,.33,.69,.59,.34h0Z"/>
      <path class="cls-9" d="M20.24,46.23c-.83,2.2-.58,4.56-.1,6.81,.12,.58,.83,.97,1.38,.79,.61-.2,.92-.77,.79-1.38-.11-.49-.2-.99-.27-1.49,.03,.2-.03-.23-.03-.27-.01-.11-.02-.23-.03-.34-.02-.25-.03-.49-.04-.74s0-.49,.02-.73c0-.11,.02-.22,.03-.34,0-.07,.02-.15,.03-.22-.01,.09-.01,.1,0,.02,.11-.51,.22-1,.4-1.5,.21-.55-.23-1.26-.79-1.38-.64-.15-1.16,.2-1.38,.79h0Z"/>
      <path class="cls-13" d="M22.48,45.5c-4.74-1.48-8.63-5.12-10.73-9.59-1.05-2.25-1.66-4.71-1.73-7.2-.04-1.31,.06-2.62,.32-3.9s.86-2.44,1.25-3.7c.12-.41-.51-.58-.63-.17-.44,1.46-1.1,2.73-1.35,4.26-.2,1.22-.28,2.47-.23,3.7,.11,2.54,.74,5.04,1.82,7.34,2.17,4.63,6.23,8.37,11.12,9.89,.4,.13,.58-.51,.17-.63h0Z"/>
      <path class="cls-13" d="M2.64,38.09c2.63,8.6,11.05,14.45,19.55,16.33,.41,.09,.59-.54,.17-.63-8.27-1.83-16.53-7.49-19.09-15.87-.12-.4-.76-.23-.63,.17h0Z"/>
      <path class="cls-13" d="M1.66,31.48c.04,1.54,.2,3.08,.49,4.6,.08,.41,.71,.24,.63-.17-.28-1.46-.43-2.94-.47-4.43-.01-.42-.67-.42-.66,0h0Z"/>
      <path class="cls-13" d="M26.33,59.71c-.98,.41-1.98,.85-3.02,1.12l.4,.23c-1.4-5.79-1.68-11.83-.49-17.69,.08-.41-.55-.59-.63-.17-1.21,5.97-.94,12.13,.49,18.03,.04,.17,.24,.27,.4,.23,1.03-.27,2.03-.71,3.02-1.12,.38-.16,.22-.8-.17-.63h0Z"/>
      <path class="cls-7" d="M3.69,25.51c-.45,2.02-.49,4.08-.14,6.11,.07,.4,.56,.62,.92,.52,.42-.12,.59-.52,.52-.92-.3-1.76-.25-3.58,.14-5.32,.09-.4-.12-.81-.52-.92-.38-.1-.83,.13-.92,.52h0Z"/>
      <path class="cls-7" d="M4.85,34.67c.97,0,.97-1.5,0-1.5s-.97,1.5,0,1.5h0Z"/>
      <path class="cls-2" d="M41.17,104.82c2.18,.08,4.34,.4,6.5,.64,.37,.04,.7-.32,.74-.65,.04-.37-.17-.71-.54-.82-1.06-.32-2.12-.63-3.2-.89-.52-.13-1.03-.24-1.56-.34-.37-.07-.88-.09-1.13-.36l-.33,1.25c.44-.13,.92-.04,1.37,.01,.54,.06,1.08,.12,1.62,.18,1.06,.12,2.11,.24,3.17,.36,.4,.05,.75-.38,.75-.75,0-.44-.35-.7-.75-.75-1.1-.12-2.2-.25-3.3-.37-.54-.06-1.08-.12-1.62-.18s-1.09-.11-1.64,.06-.71,.83-.33,1.25,.9,.58,1.44,.68c.56,.1,1.11,.22,1.67,.35,1.16,.27,2.3,.6,3.44,.95l.2-1.47c-2.16-.24-4.32-.56-6.5-.64-.97-.03-.96,1.47,0,1.5h0Z"/>
      <path class="cls-2" d="M74.84,104.15c2.37-.28,4.75-.46,7.13-.56l-.2-1.47c-2.21,.74-4.58,.82-6.73,1.78-.28,.13-.45,.56-.34,.85,.27,.77,.96,.72,1.64,.65,.62-.06,1.24-.13,1.86-.19,1.29-.13,2.58-.26,3.87-.39,.4-.04,.75-.32,.75-.75,0-.37-.34-.79-.75-.75-1.1,.11-2.2,.22-3.29,.34-.53,.05-1.05,.11-1.58,.16-.29,.03-.57,.06-.86,.09-.18,.02-.55,.08-.63,.05l.33,.19-.06-.05,.19,.33-.03-.07-.34,.85c2.01-.9,4.29-.93,6.37-1.63,.77-.26,.69-1.51-.2-1.47-2.38,.09-4.76,.28-7.13,.56-.4,.05-.75,.31-.75,.75,0,.37,.34,.8,.75,.75h0Z"/>
      <g>
        <path class="cls-13" d="M42.29,95.49c.73-4.28,1.4-8.56,2.12-12.84,.07-.41-.56-.59-.63-.17-.72,4.28-1.39,8.57-2.12,12.84-.07,.41,.56,.59,.63,.17h0Z"/>
        <path class="cls-13" d="M39.04,111.84c1.02-4.5,1.94-9.02,2.76-13.56,.07-.41-.56-.59-.63-.17-.82,4.54-1.74,9.06-2.76,13.56-.09,.41,.54,.59,.63,.17h0Z"/>
        <path class="cls-13" d="M52.77,86.23c-2.06,8.15-4.11,16.29-6.17,24.44-.29,1.15-.58,2.3-.87,3.45-.1,.41,.53,.58,.63,.17,2.06-8.15,4.11-16.29,6.17-24.44,.29-1.15,.58-2.3,.87-3.45,.1-.41-.53-.58-.63-.17h0Z"/>
        <path class="cls-13" d="M39.84,113.07c-2.11-3-5.79-4.3-9.36-4.29-3.94,.01-6.82,2.58-7.37,6.48-.26,1.82-.12,4.06,.65,5.75,.68,1.5,2.11,1.87,3.65,1.8,2.49-.11,4.95-.35,7.45-.29s5.15,.39,7.73,.73c1.77,.23,3.73,.24,4.93-1.3,1.42-1.81,.92-4,.36-6.02-.11-.41-.75-.23-.63,.17,.6,2.17,1.19,5.38-1.56,6.4-1.98,.73-4.56-.16-6.6-.37-2.34-.24-4.7-.33-7.05-.27-1.26,.03-2.51,.12-3.76,.22-1.01,.08-2.09,.23-3-.32-1.04-.63-1.25-1.88-1.44-3-.22-1.31-.25-2.67,.02-3.98,.44-2.12,1.75-4.09,3.82-4.89,3.84-1.48,9.26,.17,11.6,3.5,.24,.34,.81,.02,.57-.33h0Z"/>
      </g>
      <path class="cls-13" d="M40.48,105.25c2.48,.08,4.94,.32,7.38,.75,.41,.07,.59-.56,.17-.63-2.5-.43-5.02-.69-7.56-.77-.42-.01-.42,.64,0,.66h0Z"/>
      <path class="cls-13" d="M40.92,102.37c2.58,.14,5.18,.26,7.72,.75,.41,.08,.59-.55,.17-.63-2.6-.5-5.25-.63-7.89-.77-.42-.02-.42,.63,0,.66h0Z"/>
      <g>
        <g>
          <path class="cls-13" d="M84.78,111.66c-2.19-9.66-3.73-19.43-5.37-29.2-.07-.42-.7-.24-.63,.17,1.64,9.76,3.18,19.53,5.37,29.2,.09,.41,.73,.24,.63-.17h0Z"/>
          <path class="cls-13" d="M69.78,86.41c2.06,8.15,4.11,16.29,6.17,24.44l.87,3.45c.1,.41,.74,.24,.63-.17-2.06-8.15-4.11-16.29-6.17-24.44l-.87-3.45c-.1-.41-.74-.24-.63,.17h0Z"/>
          <path class="cls-13" d="M83.92,113.4c2.31-3.28,7.45-4.84,11.27-3.63,2.16,.69,3.6,2.65,4.11,4.8,.32,1.37,.29,2.81,.06,4.19-.19,1.12-.4,2.38-1.44,3-.9,.55-1.99,.4-3,.32-1.17-.1-2.35-.18-3.52-.21-2.35-.07-4.71,.01-7.05,.24-2.07,.2-4.62,1.07-6.65,.44-2.93-.91-2.37-4.21-1.74-6.45,.11-.41-.52-.58-.63-.17-.49,1.77-.95,3.53-.1,5.28,.75,1.54,2.25,2.19,3.91,2.17,2.44-.03,4.88-.63,7.32-.78s5.02-.13,7.53,.06c1.6,.12,3.61,.54,4.87-.76,1.17-1.2,1.31-3.45,1.33-5.03,.05-3.76-2.04-7.42-5.99-8s-8.5,.86-10.85,4.19c-.24,.35,.33,.67,.57,.33h0Z"/>
        </g>
        <path class="cls-13" d="M82.71,104.59c-2.53,.08-5.06,.34-7.56,.77-.42,.07-.24,.7,.17,.63,2.44-.42,4.91-.67,7.38-.75,.42-.01,.42-.67,0-.66h0Z"/>
        <path class="cls-13" d="M82.27,101.72c-2.64,.14-5.29,.27-7.89,.77-.41,.08-.24,.71,.17,.63,2.54-.49,5.14-.61,7.72-.75,.42-.02,.42-.68,0-.66h0Z"/>
        <path class="cls-13" d="M99.28,119.18c-4.14-.28-8.42-.86-12.54-.17-.42,.07-.24,.7,.17,.63,4.06-.68,8.29-.08,12.37,.19,.42,.03,.42-.63,0-.66h0Z"/>
        <path class="cls-13" d="M85.21,119.16c-1.09,.16-2.17,.4-3.22,.71-.4,.12-.23,.76,.17,.63,1.05-.32,2.13-.56,3.22-.71,.18-.03,.27-.25,.23-.4-.05-.19-.23-.25-.4-.23h0Z"/>
      </g>
      <path class="cls-7" d="M26.94,114.02c.02-.09,.05-.17,.08-.26,.01-.04,.03-.08,.05-.13,.06-.15-.07,.16,0,.01,.08-.16,.16-.32,.25-.48,.05-.08,.1-.15,.15-.22l.03-.04c.05-.06,.04-.05-.03,.04,.03-.02,.05-.06,.07-.09,.12-.14,.24-.27,.37-.39,.06-.06,.12-.11,.19-.16,.12-.1-.12,.09,0,0,.04-.03,.07-.05,.11-.08,.15-.1,.3-.19,.46-.28,.04-.02,.08-.04,.12-.06,.06-.03,.17-.04-.01,0,.08-.02,.17-.07,.25-.09,.17-.06,.35-.1,.52-.13,.39-.07,.64-.56,.52-.92-.13-.42-.51-.6-.92-.52-1.72,.31-3.18,1.7-3.65,3.38-.1,.38,.13,.83,.52,.92s.81-.12,.92-.52h0Z"/>
      <path class="cls-7" d="M31.83,110.25h-.05c-.1,0-.2,.02-.29,.06-.09,.03-.17,.08-.24,.16-.07,.07-.12,.15-.16,.24-.05,.09-.07,.19-.06,.29l.03,.2c.04,.13,.1,.24,.19,.33l.15,.12c.12,.07,.24,.1,.38,.1h.05c.1,0,.2-.02,.29-.06,.09-.03,.17-.08,.24-.16,.07-.07,.12-.15,.16-.24,.05-.09,.07-.19,.06-.29l-.03-.2c-.04-.13-.1-.24-.19-.33l-.15-.12c-.12-.07-.24-.1-.38-.1h0Z"/>
      <polygon class="cls-7" points="50.6 57.16 46.86 57.16 55.86 32.97 59.6 32.97 50.6 57.16"/>
      <polygon class="cls-8" points="44.78 57.16 43.04 57.16 52.04 32.97 53.78 32.97 44.78 57.16"/>
      <path class="cls-13" d="M50.67,56.8h-8.81c-1.05,0-2.1,.04-3.14,0-1.51-.05-2.67-1.15-3.06-2.58-.19-.68-.15-1.37-.15-2.06v-5.04c0-.44-.68-.44-.68,0v4.74c0,1.95,.18,3.96,2.04,5.09,1.12,.69,2.47,.53,3.72,.53h10.09c.44,0,.44-.68,0-.68h0Z"/>
      <path class="cls-13" d="M45.81,33.24h37.58c1.83,0,3.37,.72,3.87,2.72,.43,1.71,.11,3.77,.11,5.52,0,.44,.68,.44,.68,0,0-3.2,.73-8.73-3.91-8.92-2.03-.08-4.08,0-6.11,0H45.81c-.44,0-.44,.68,0,.68h0Z"/>
      <path class="cls-7" d="M33.19,44.07c.87-.37,1.85-.77,2.77-.85,.2-.02,.38-.16,.38-.38,0-.19-.17-.39-.38-.38-1.03,.09-2.02,.48-2.97,.88-.19,.08-.32,.25-.26,.46,.05,.18,.27,.34,.46,.26h0Z"/>
      <path class="cls-7" d="M37.18,43.1c.48,0,.48-.75,0-.75s-.48,.75,0,.75h0Z"/>
      <path class="cls-13" d="M109.26,91.8c1.16-.03,2.34-.06,3.46-.38s2.06-1,2.95-1.77c.32-.28-.15-.74-.46-.46-.83,.72-1.68,1.34-2.76,1.63s-2.12,.3-3.19,.32c-.42,0-.42,.67,0,.66h0Z"/>
      <g>
        <path class="cls-13" d="M79.96,87.02c7.2-2.98,13.21-8.29,17.61-14.68,5.1-7.41,7.12-16.29,6.41-25.23-.4-5-.98-10.24-2.96-14.89-.09-.22-.37-.18-.52-.07-1.87,1.47-4.29,2.74-6.7,2.74-.42,0-.42,.66,0,.66,2.6,0,5.16-1.35,7.17-2.93l-.52-.07c1.76,4.14,2.29,8.72,2.75,13.16s.29,8.9-.61,13.34c-1.59,7.85-5.98,14.78-11.81,20.2-3.22,2.99-6.92,5.46-10.98,7.14-.39,.16-.22,.79,.17,.63h0Z"/>
        <path class="cls-13" d="M96.44,60.46c.91,.46,1.91,.67,2.9,.9,.17,.04,.36-.05,.4-.23,1.77-7.34,1.66-15.07-.81-22.24-.06-.18-.3-.33-.48-.2-.78,.55-1.67,.92-2.46,1.46-.34,.24-.02,.81,.33,.57,.78-.55,1.67-.92,2.46-1.46l-.48-.2c2.43,7.06,2.55,14.66,.81,21.89l.4-.23c-.93-.22-1.88-.4-2.74-.84-.38-.19-.71,.38-.33,.57h0Z"/>
      </g>
      <path class="cls-13" d="M63.16,15.29c9.33,.48,18.18,4.59,24.52,11.46,6.29,6.82,9.7,15.97,9.43,25.24s-4.18,18.09-10.79,24.52-15.77,10.16-25.08,10.11c-11.82-.06-22.91-6.12-29.5-15.9-.24-.36-.83-.02-.59,.34,5.86,8.69,15.21,14.6,25.62,15.93,9.66,1.24,19.56-1.49,27.2-7.53,7.35-5.81,12.26-14.39,13.51-23.68s-1.32-19.35-7.18-26.99c-6.5-8.47-16.5-13.65-27.14-14.2-.44-.02-.44,.66,0,.68h0Z"/>
      <path class="cls-13" d="M91.35,45.6c.99,.22,1.97,.5,2.94,.8,1.65,.51,3.36,1.08,4.8,2.05,.48,.32,1.16,.82,1.17,1.46,0,.41,.65,.41,.64,0-.03-1.48-1.96-2.37-3.09-2.88-1.63-.74-3.35-1.28-5.08-1.74-.4-.11-.8-.21-1.21-.3s-.57,.53-.17,.62h0Z"/>
      <path class="cls-13" d="M31.45,44.97c-1.12,.19-2.23,.45-3.33,.75-1.72,.46-3.61,.98-5.08,2.03-.57,.41-1.13,.97-1.15,1.72,0,.43,.65,.43,.66,0,.01-.54,.53-.95,.94-1.23,.69-.46,1.46-.8,2.23-1.08,1.55-.58,3.17-.99,4.79-1.33,.37-.08,.73-.15,1.1-.22,.42-.07,.24-.71-.18-.64h0Z"/>
      <path class="cls-13" d="M87.37,47.12v4.85c0,2.2-.56,4.72-3.27,4.83-3.03,.12-6.08,0-9.11,0h-5.79c-.87,0-2.01,.19-2.87,0,.35,.08,.15,.06-.02-.17-.23-.33-.57-.63-.85-.93l-2.01-2.21c-.78-.85-1.66-2.16-2.83-1.03-.63,.61-1.18,1.34-1.77,2-.63,.71-1.39,1.4-1.93,2.17-.05,.08-.15,.19-.22,.25,.05-.04,.32-.08,.06-.08-.43,.01-.86,0-1.29,0l-2.68-.02c-.44,0-.44,.68,0,.68h2.32c.54,.02,1.49,.22,1.99-.02,.4-.2,.77-.85,1.06-1.17l2.1-2.37c.4-.46,.93-1.44,1.71-1.04,.48,.24,.96,1.05,1.32,1.45l2.13,2.33c.27,.3,.53,.73,.92,.84,.8,.24,2.05,0,2.88,0h6.16c2.92,0,5.87,.13,8.79,0,5.03-.22,3.89-7.01,3.89-10.36,0-.44-.68-.44-.68,0h0Z"/>
      <path class="cls-13" d="M15.9,122.17h5.08c.41,0,.41-.64,0-.64h-5.08c-.41,0-.41,.64,0,.64h0Z"/>
      <path class="cls-13" d="M49.52,122.17h5.08c.41,0,.41-.64,0-.64h-5.08c-.41,0-.41,.64,0,.64h0Z"/>
      <path class="cls-13" d="M67.7,122.17h5.08c.41,0,.41-.64,0-.64h-5.08c-.41,0-.41,.64,0,.64h0Z"/>
      <path class="cls-13" d="M101.92,122.17h5.08c.41,0,.41-.64,0-.64h-5.08c-.41,0-.41,.64,0,.64h0Z"/>
    </g>
  </g>
</svg>